<svg width="2510" height="926" viewBox="0 0 2510 926" fill="none" xmlns="http://www.w3.org/2000/svg">
<path d="M1190.65 0C1602.18 0 1881.57 63.3011 1881.57 151.46C1881.57 170.759 1867.06 187.433 1842.67 203.799C1821.22 218.62 1845.6 225.568 1901.79 225.568H2058.93C2150 225.568 2171.31 219.547 2213.76 197.777C2252.65 178.478 2340.64 180.485 2373.67 197.16C2406.71 214.915 2450.7 236.53 2489.6 254.131C2535.91 275.746 2501.79 291.803 2394.51 291.803C1869.99 291.185 1486.87 291.185 966.827 291.803C872.358 291.803 841.64 298.75 832.378 323.762C819.566 347.075 704.876 345.223 673.541 326.696C635.259 303.537 597.595 280.995 568.575 262.931C541.871 246.257 555.763 235.449 615.501 232.361C677.554 228.656 693.762 216.15 655.481 202.409C595.743 182.647 551.75 160.723 551.75 129.536C551.75 67.3153 773.104 0 1190.5 0H1190.65ZM754.117 156.554C754.117 194.69 875.908 225.568 1055.58 225.568H1443.96C1572.08 225.568 1721.03 197.16 1721.03 150.996C1721.03 110.545 1607.43 73.1823 1268.91 73.1823C948.921 73.1823 754.272 107.612 754.272 156.554H754.117Z" fill="#FAFAFA"/>
<path d="M747.789 356.338C785.453 384.129 806.909 387.371 1024.87 388.297C1127.52 388.915 1248.54 388.915 1373.26 388.297C1519.29 387.989 1542.44 381.813 1595.85 358.5C1637.53 341.671 1712.85 343.215 1748.36 359.58C1787.72 378.571 1820.29 394.627 1865.98 417.478C1911.83 441.1 1867.06 454.686 1774.91 454.532C1464.18 453.914 1253.32 453.914 1024.25 454.532C805.674 455.613 787.769 456.693 748.87 485.719C714.601 507.798 590.032 501.159 587.717 476.919C586.636 441.1 586.636 402.656 587.717 364.675C590.032 341.362 713.521 335.186 747.635 356.184L747.789 356.338ZM2391.58 416.242C2391.58 442.335 2308.07 463.641 2204.96 463.641C2094.9 463.641 2003.21 442.798 2003.21 416.242C2003.21 389.687 2088.41 368.998 2195.08 368.998C2301.74 368.998 2391.58 390.15 2391.58 416.242Z" fill="#FAFAFA"/>
<path d="M827.13 513.357C992.296 513.357 1075.19 539.296 1161.63 592.098C1216.74 625.756 1240.97 639.805 1268.91 658.024C1293.76 674.389 1333.28 678.558 1395.8 678.558H1487.33C1603.26 678.558 1693.1 666.67 1691.86 630.079C1689.55 608.618 1657.13 590.4 1579.95 589.936C1555.56 589.936 1534.1 590.4 1501.07 590.554C1264.59 591.017 1261.04 517.835 1454.14 517.835C1647.25 517.835 1880.8 590.554 1880.8 653.701C1880.8 700.173 1756.69 745.41 1489.03 744.947C1254.25 744.329 1112.85 744.484 898.908 744.947C810.768 744.947 782.983 758.225 824.66 775.98C847.197 790.03 795.64 806.241 709.352 795.897C635.105 787.096 552.213 766.099 552.213 735.375C552.213 714.84 589.26 699.247 650.232 687.513C685.581 680.411 690.829 674.235 656.561 662.038C592.81 640.423 552.213 621.896 552.213 589.319C552.213 541.457 653.628 513.203 826.976 513.203L827.13 513.357ZM761.681 620.043C761.681 656.171 891.498 678.249 990.598 678.249H1048.02C1117.64 678.249 1132.61 670.993 1110.07 654.009C1034.75 598.119 952.934 588.547 883.472 588.547C805.828 588.547 761.681 599.354 761.681 620.043Z" fill="#FAFAFA"/>
<path d="M924.532 874.79C924.532 899.956 841.64 920.49 734.977 920.49C628.313 920.49 542.025 899.956 542.025 874.79C542.025 849.624 628.468 829.09 734.977 829.09C841.486 829.09 924.532 849.47 924.532 874.79ZM2133.64 831.56C2427.55 823.995 2427.55 925.431 2133.64 917.866C1809.02 910.455 1484.4 903.198 1159.93 895.788C1048.02 892.854 1046.32 856.726 1159.93 853.793C1484.55 846.382 1809.18 839.125 2133.64 831.715V831.56Z" fill="#FAFAFA"/>
<path d="M3.3062 183.109C10.8699 180.948 11.333 179.867 11.6417 166.28C11.6417 158.715 11.6417 151.459 11.6417 143.893C11.6417 134.63 9.9437 133.086 3.76926 129.998C-0.0897658 127.991 0.373317 124.131 3.76926 122.278C9.48062 119.499 13.8027 117.338 18.4336 115.176C23.0644 113.015 25.0711 114.713 25.3798 118.264C25.9973 122.278 28.7758 123.822 32.9435 120.889C38.5005 117.183 43.2857 114.25 48.8427 114.25C67.0573 114.25 59.3392 140.96 43.5944 130.461C34.6415 124.44 26.6147 130.77 26.306 145.9C26.306 152.539 26.306 159.333 26.306 166.126C26.6147 179.713 27.0778 180.33 38.3462 182.8C43.9032 184.036 42.6682 190.983 37.2656 190.983C25.2254 190.983 13.3397 190.983 4.23235 190.983C-0.244116 190.983 -1.94209 184.808 2.99747 183.109H3.3062Z" fill="#FAFAFA"/>
<path d="M64.7422 177.551C64.7422 167.979 71.2254 163.192 84.1917 158.097C92.6815 154.855 96.6949 153.157 102.098 151.15C105.957 149.76 107.037 147.444 107.037 143.739V137.254C107.037 129.689 103.796 123.668 93.299 123.822C87.2789 123.822 82.185 125.984 82.0306 131.233C82.0306 132.777 82.0306 134.166 82.3393 136.328C82.6481 149.606 65.8227 149.915 65.8227 139.416C65.8227 128.917 84.0373 114.559 99.6278 114.559C111.051 114.559 122.165 121.661 122.01 137.254C122.01 150.995 122.01 161.648 122.01 174.772C122.01 180.484 126.178 182.337 130.809 179.095C133.587 177.397 137.601 179.558 135.285 184.19C133.278 188.358 128.185 193.145 120.775 193.145C115.218 193.145 111.514 190.52 108.735 186.351C107.191 184.19 105.339 183.881 102.715 185.888C97.158 190.211 92.3728 193.145 83.4199 193.145C71.9972 193.145 65.0509 187.586 65.0509 177.397L64.7422 177.551ZM90.9836 182.646C101.171 182.646 107.037 174 107.037 167.361V163.192C107.037 158.406 105.03 157.48 100.708 158.869C84.0373 164.119 81.7219 169.831 81.7219 174.154C81.7219 179.558 84.9635 182.646 90.8292 182.646H90.9836Z" fill="#FAFAFA"/>
<path d="M141.613 155.32C141.613 130.771 157.358 114.251 179.432 114.251C184.834 114.251 189.465 115.177 194.096 117.03C197.801 118.42 199.499 117.03 199.499 113.479V102.208C199.499 96.1871 197.955 94.7975 191.781 92.0185C187.613 90.0113 188.076 85.8427 191.781 84.1444C196.72 82.1373 201.814 79.667 206.291 77.1967C211.076 74.5721 214.472 76.2704 214.472 81.8285C214.472 113.633 214.472 138.028 214.472 170.45C214.472 176.163 216.324 177.861 222.962 178.015C228.364 178.324 228.055 184.345 224.042 185.889C218.022 188.051 212.156 190.367 207.68 192.219C203.512 193.918 200.888 192.991 200.425 188.977C199.962 184.963 196.72 183.882 193.479 186.198C188.385 190.058 182.365 193.146 173.875 193.146C158.439 193.146 141.768 180.177 141.768 155.32H141.613ZM180.667 183.11C191.009 183.11 199.344 175.236 199.344 163.966V139.726C199.344 131.852 191.781 121.971 178.969 121.971C168.318 121.971 158.13 128.764 158.13 150.533C158.13 170.913 167.392 183.11 180.667 183.11Z" fill="#FAFAFA"/>
<path d="M232.532 183.109C240.095 181.102 240.867 180.021 241.021 166.126C241.021 159.024 241.021 151.458 241.021 143.893C241.021 134.63 239.323 133.24 233.149 129.998C229.29 127.991 229.599 124.131 233.149 122.433C238.089 120.117 242.102 118.11 247.968 115.33C253.37 112.86 255.84 115.176 255.84 119.962C255.84 137.254 255.84 151.458 255.84 166.28C256.149 180.021 256.303 181.102 264.176 183.263C269.115 184.807 267.88 191.137 262.632 191.292C253.216 191.292 243.491 191.292 233.766 191.292C228.827 191.292 227.592 184.962 232.377 183.418L232.532 183.109ZM247.196 83.3711C253.37 83.3711 258.31 88.0029 258.31 93.561C258.31 99.5824 253.37 104.677 247.196 104.677C241.021 104.677 236.236 100.046 236.236 94.1786C236.236 88.3117 241.176 83.3711 247.196 83.3711Z" fill="#FAFAFA"/>
<path d="M273.592 153.931C273.592 131.081 290.109 114.406 312.182 114.406C334.256 114.406 350.309 131.081 350.309 153.776C350.309 176.472 333.947 193.147 311.719 193.147C289.491 193.147 273.438 176.627 273.438 153.931H273.592ZM313.571 185.736C324.068 185.736 333.947 175.083 333.021 154.24C332.249 132.933 321.135 121.972 310.33 121.972C299.525 121.972 290.109 132.316 290.88 153.159C291.652 174.62 302.766 185.736 313.571 185.736Z" fill="#FAFAFA"/>
<path d="M5.77495 317.277C13.3386 315.116 13.8017 314.035 14.1104 300.448C14.1104 292.883 14.1104 285.627 14.1104 278.061C14.1104 268.798 12.4125 267.254 6.23804 264.166C2.37901 262.159 2.8421 258.299 6.23804 256.446C11.9494 253.667 16.2715 251.506 20.9023 249.344C25.5332 247.183 27.5399 248.881 27.8486 252.432C28.466 256.446 31.2445 257.99 35.4123 255.057C40.9693 251.351 45.7544 248.418 51.3114 248.418C69.526 248.418 61.808 275.128 46.0632 264.629C37.1102 258.608 29.0835 264.938 28.7747 280.068C28.7747 286.707 28.7747 293.501 28.7747 300.294C29.0835 313.881 29.5466 314.498 40.8149 316.968C46.3719 318.204 45.137 325.151 39.7344 325.151C27.6942 325.151 15.8084 325.151 6.7011 325.151C2.22463 325.151 0.526664 318.975 5.46622 317.277H5.77495Z" fill="#FAFAFA"/>
<path d="M67.2109 311.567C67.2109 301.994 73.6941 297.208 86.6604 292.113C95.1503 288.871 99.1637 287.172 104.566 285.165C108.425 283.776 109.506 281.46 109.506 277.755V271.27C109.506 263.705 106.264 257.683 95.7677 257.838C89.7477 257.838 84.6537 259.999 84.4994 265.249C84.4994 266.793 84.4994 268.182 84.8081 270.344C85.1168 283.621 68.2915 283.93 68.2915 273.431C68.2915 262.933 86.5061 248.574 102.097 248.574C113.519 248.574 124.633 255.676 124.479 271.27C124.479 285.011 124.479 295.664 124.479 308.787C124.479 314.5 128.647 316.353 133.277 313.11C136.056 311.412 140.069 313.574 137.754 318.205C135.747 322.374 130.653 327.16 123.244 327.16C117.687 327.16 113.982 324.536 111.204 320.367C109.66 318.205 107.808 317.897 105.184 319.904C99.6268 324.227 94.8416 327.16 85.8886 327.16C74.4659 327.16 67.5197 321.602 67.5197 311.412L67.2109 311.567ZM93.4523 316.662C103.64 316.662 109.506 308.016 109.506 301.377V297.208C109.506 292.422 107.499 291.495 103.177 292.885C86.5061 298.134 84.1907 303.847 84.1907 308.17C84.1907 313.574 87.4322 316.662 93.298 316.662H93.4523Z" fill="#FAFAFA"/>
<path d="M144.082 289.488C144.082 264.939 159.827 248.419 181.9 248.419C187.303 248.419 191.934 249.345 196.565 251.198C200.269 252.588 201.967 251.198 201.967 247.647V236.376C201.967 230.355 200.424 228.966 194.249 226.186C190.082 224.179 190.545 220.011 194.249 218.312C199.189 216.305 204.283 213.835 208.759 211.365C213.545 208.74 216.94 210.438 216.94 215.997C216.94 247.801 216.94 272.196 216.94 304.618C216.94 310.331 218.793 312.029 225.43 312.183C230.833 312.492 230.524 318.513 226.511 320.057C220.491 322.219 214.625 324.535 210.149 326.387C205.981 328.086 203.357 327.159 202.894 323.145C202.431 319.131 199.189 318.05 195.947 320.366C190.853 324.226 184.833 327.314 176.343 327.314C160.907 327.314 144.236 314.345 144.236 289.488H144.082ZM183.135 317.124C193.478 317.124 201.813 309.25 201.813 297.979V273.739C201.813 265.865 194.249 255.984 181.437 255.984C170.786 255.984 160.599 262.778 160.599 284.547C160.599 304.927 169.86 317.124 183.135 317.124Z" fill="#FAFAFA"/>
<path d="M235 317.279C242.564 315.272 243.336 314.191 243.49 300.296C243.49 293.194 243.49 285.628 243.49 278.063C243.49 268.8 241.792 267.41 235.618 264.168C231.759 262.161 232.067 258.301 235.618 256.603C240.557 254.287 244.571 252.28 250.436 249.5C255.839 247.03 258.309 249.346 258.309 254.132C258.309 271.424 258.309 285.628 258.309 300.45C258.618 314.191 258.772 315.272 266.644 317.433C271.584 318.977 270.349 325.307 265.101 325.462C255.685 325.462 245.96 325.462 236.235 325.462C231.296 325.462 230.061 319.132 234.846 317.588L235 317.279ZM249.665 217.387C255.839 217.387 260.779 222.019 260.779 227.577C260.779 233.598 255.839 238.693 249.665 238.693C243.49 238.693 238.705 234.061 238.705 228.194C238.705 222.327 243.645 217.387 249.665 217.387Z" fill="#FAFAFA"/>
<path d="M276.215 288.099C276.215 265.249 292.732 248.574 314.805 248.574C336.879 248.574 352.932 265.249 352.932 287.944C352.932 310.64 336.57 327.315 314.342 327.315C292.114 327.315 276.061 310.795 276.061 288.099H276.215ZM316.194 319.749C326.691 319.749 336.57 309.096 335.644 288.253C334.872 266.947 323.758 255.985 312.953 255.985C302.148 255.985 292.732 266.329 293.503 287.172C294.275 308.633 305.389 319.749 316.194 319.749Z" fill="#FAFAFA"/>
<path d="M8.39995 457.156C15.9636 454.995 16.4267 453.914 16.7354 440.327C16.7354 432.762 16.7354 425.506 16.7354 417.94C16.7354 408.677 15.0375 407.133 8.86301 404.045C5.00398 402.038 5.46707 398.178 8.86301 396.325C14.5744 393.546 18.8965 391.385 23.5273 389.223C28.1582 387.062 30.1649 388.76 30.4736 392.311C31.091 396.325 33.8695 397.869 38.0373 394.936C43.5943 391.23 48.3794 388.297 53.9364 388.297C72.151 388.297 64.433 415.007 48.6882 404.508C39.7352 398.487 31.7085 404.817 31.3997 419.947C31.3997 426.586 31.3997 433.38 31.3997 440.173C31.7085 453.759 32.1716 454.377 43.4399 456.847C48.9969 458.082 47.762 465.03 42.3594 465.03C30.3192 465.03 18.4334 465.03 9.3261 465.03C4.84963 465.03 3.15166 458.854 8.09122 457.156H8.39995Z" fill="#FAFAFA"/>
<path d="M69.8359 451.445C69.8359 441.873 76.3191 437.087 89.2854 431.992C97.7753 428.75 101.789 427.051 107.191 425.044C111.05 423.655 112.131 421.339 112.131 417.633V411.149C112.131 403.584 108.889 397.562 98.3927 397.717C92.3727 397.717 87.2787 399.878 87.1244 405.128C87.1244 406.671 87.1244 408.061 87.4331 410.223C87.7418 423.5 70.9165 423.809 70.9165 413.31C70.9165 402.812 89.1311 388.453 104.722 388.453C116.144 388.453 127.258 395.555 127.104 411.149C127.104 424.89 127.104 435.543 127.104 448.666C127.104 454.379 131.272 456.232 135.902 452.989C138.681 451.291 142.694 453.453 140.379 458.084C138.372 462.253 133.278 467.039 125.869 467.039C120.312 467.039 116.607 464.414 113.829 460.246C112.285 458.084 110.433 457.776 107.809 459.783C102.252 464.106 97.4666 467.039 88.5136 467.039C77.0909 467.039 70.1447 461.481 70.1447 451.291L69.8359 451.445ZM96.0773 456.54C106.265 456.54 112.131 447.894 112.131 441.256V437.087C112.131 432.301 110.124 431.374 105.802 432.764C89.1311 438.013 86.8157 443.726 86.8157 448.049C86.8157 453.453 90.0572 456.54 95.923 456.54H96.0773Z" fill="#FAFAFA"/>
<path d="M146.707 429.366C146.707 404.818 162.452 388.298 184.525 388.298C189.928 388.298 194.559 389.224 199.19 391.077C202.894 392.467 204.592 391.077 204.592 387.526V376.255C204.592 370.234 203.049 368.844 196.874 366.065C192.707 364.058 193.17 359.89 196.874 358.191C201.814 356.184 206.908 353.714 211.384 351.244C216.17 348.619 219.565 350.317 219.565 355.875C219.565 387.68 219.565 412.074 219.565 444.497C219.565 450.209 221.418 451.908 228.055 452.062C233.458 452.371 233.149 458.392 229.136 459.936C223.116 462.098 217.25 464.414 212.774 466.266C208.606 467.965 205.982 467.038 205.519 463.024C205.056 459.01 201.814 457.929 198.572 460.245C193.478 464.105 187.458 467.193 178.968 467.193C163.532 467.193 146.861 454.224 146.861 429.366H146.707ZM185.76 457.003C196.103 457.003 204.438 449.129 204.438 437.858V413.618C204.438 405.744 196.874 395.863 184.062 395.863C173.411 395.863 163.224 402.656 163.224 424.426C163.224 444.806 172.485 457.003 185.76 457.003Z" fill="#FAFAFA"/>
<path d="M237.625 457.156C245.189 455.149 245.961 454.068 246.115 440.173C246.115 433.071 246.115 425.505 246.115 417.94C246.115 408.676 244.417 407.287 238.243 404.045C234.384 402.038 234.692 398.178 238.243 396.479C243.182 394.163 247.196 392.156 253.061 389.377C258.464 386.907 260.934 389.223 260.934 394.009C260.934 411.301 260.934 425.505 260.934 440.327C261.243 454.068 261.397 455.149 269.269 457.31C274.209 458.854 272.974 465.184 267.726 465.339C258.31 465.339 248.585 465.339 238.86 465.339C233.921 465.339 232.686 459.009 237.471 457.465L237.625 457.156ZM252.135 357.418C258.31 357.418 263.249 362.05 263.249 367.608C263.249 373.629 258.31 378.724 252.135 378.724C245.961 378.724 241.176 374.092 241.176 368.225C241.176 362.359 246.115 357.418 252.135 357.418Z" fill="#FAFAFA"/>
<path d="M278.686 427.978C278.686 405.128 295.202 388.453 317.276 388.453C339.349 388.453 355.403 405.128 355.403 427.823C355.403 450.519 339.041 467.194 316.813 467.194C294.585 467.194 278.531 450.673 278.531 427.978H278.686ZM318.665 459.628C329.162 459.628 339.041 448.975 338.115 428.132C337.343 406.826 326.229 395.864 315.424 395.864C304.618 395.864 295.202 406.208 295.974 427.051C296.746 448.512 307.86 459.628 318.665 459.628Z" fill="#FAFAFA"/>
<path d="M5.77495 603.984C13.3386 601.823 13.8017 600.742 14.1104 587.155C14.1104 579.59 14.1104 572.334 14.1104 564.768C14.1104 555.505 12.4125 553.961 6.23804 550.873C2.37901 548.866 2.8421 545.006 6.23804 543.153C11.9494 540.374 16.2715 538.213 20.9023 536.051C25.5332 533.89 27.5399 535.588 27.8486 539.139C28.466 543.153 31.2445 544.697 35.4123 541.764C40.9693 538.058 45.7544 535.125 51.3114 535.125C69.526 535.125 61.808 561.835 46.0632 551.336C37.1102 545.315 29.0835 551.645 28.7747 566.776C28.7747 573.414 28.7747 580.208 28.7747 587.001C29.0835 600.588 29.5466 601.205 40.8149 603.675C46.3719 604.911 45.137 611.858 39.7344 611.858C27.6942 611.858 15.8084 611.858 6.7011 611.858C2.22463 611.858 0.526664 605.683 5.46622 603.984H5.77495Z" fill="#FAFAFA"/>
<path d="M67.2109 598.426C67.2109 588.854 73.6941 584.067 86.6604 578.972C95.1503 575.73 99.1637 574.032 104.566 572.025C108.425 570.635 109.506 568.319 109.506 564.614V558.129C109.506 550.564 106.264 544.543 95.7677 544.697C89.7477 544.697 84.6537 546.859 84.4994 552.108C84.4994 553.652 84.4994 555.041 84.8081 557.203C85.1168 570.481 68.2915 570.79 68.2915 560.291C68.2915 549.792 86.5061 535.434 102.097 535.434C113.519 535.434 124.633 542.536 124.479 558.129C124.479 571.87 124.479 582.523 124.479 595.647C124.479 601.359 128.647 603.212 133.277 599.97C136.056 598.272 140.069 600.433 137.754 605.065C135.747 609.233 130.653 614.02 123.244 614.02C117.687 614.02 113.982 611.395 111.204 607.226C109.66 605.065 107.808 604.756 105.184 606.763C99.6268 611.086 94.8416 614.02 85.8886 614.02C74.4659 614.02 67.5197 608.461 67.5197 598.272L67.2109 598.426ZM93.4523 603.367C103.64 603.367 109.506 594.72 109.506 588.082V583.913C109.506 579.127 107.499 578.2 103.177 579.59C86.5061 584.839 84.1907 590.552 84.1907 594.875C84.1907 600.279 87.4322 603.367 93.298 603.367H93.4523Z" fill="#FAFAFA"/>
<path d="M144.082 576.195C144.082 551.646 159.827 535.126 181.9 535.126C187.303 535.126 191.934 536.052 196.565 537.905C200.269 539.295 201.967 537.905 201.967 534.354V523.083C201.967 517.062 200.424 515.673 194.249 512.893C190.082 510.886 190.545 506.718 194.249 505.019C199.189 503.012 204.283 500.542 208.759 498.072C213.545 495.447 216.94 497.145 216.94 502.704C216.94 534.508 216.94 558.903 216.94 591.325C216.94 597.038 218.793 598.736 225.43 598.89C230.833 599.199 230.524 605.22 226.511 606.764C220.491 608.926 214.625 611.242 210.149 613.095C205.981 614.793 203.357 613.866 202.894 609.852C202.431 605.838 199.189 604.757 195.947 607.073C190.853 610.933 184.833 614.021 176.343 614.021C160.907 614.021 144.236 601.052 144.236 576.195H144.082ZM183.135 603.831C193.478 603.831 201.813 595.957 201.813 584.686V560.446C201.813 552.572 194.249 542.691 181.437 542.691C170.786 542.691 160.599 549.485 160.599 571.254C160.599 591.634 169.86 603.831 183.135 603.831Z" fill="#FAFAFA"/>
<path d="M235 603.984C242.564 601.977 243.336 600.896 243.49 587.001C243.49 579.899 243.49 572.333 243.49 564.768C243.49 555.505 241.792 554.115 235.618 550.873C231.759 548.866 232.067 545.006 235.618 543.308C240.557 540.992 244.571 538.985 250.436 536.205C255.839 533.735 258.309 536.051 258.309 540.837C258.309 558.129 258.309 572.333 258.309 587.155C258.618 600.896 258.772 601.977 266.644 604.138C271.584 605.682 270.349 612.012 265.101 612.167C255.685 612.167 245.96 612.167 236.235 612.167C231.296 612.167 230.061 605.837 234.846 604.293L235 603.984ZM249.665 504.246C255.839 504.246 260.779 508.878 260.779 514.436C260.779 520.457 255.839 525.552 249.665 525.552C243.49 525.552 238.705 520.921 238.705 515.054C238.705 509.187 243.645 504.246 249.665 504.246Z" fill="#FAFAFA"/>
<path d="M276.215 574.806C276.215 551.956 292.732 535.281 314.805 535.281C336.879 535.281 352.932 551.956 352.932 574.651C352.932 597.347 336.57 614.022 314.342 614.022C292.114 614.022 276.061 597.502 276.061 574.806H276.215ZM316.194 606.456C326.691 606.456 336.57 595.803 335.644 574.96C334.872 553.654 323.758 542.692 312.953 542.692C302.148 542.692 292.732 553.036 293.503 573.879C294.275 595.34 305.389 606.456 316.194 606.456Z" fill="#FAFAFA"/>
<path d="M15.8081 760.848C23.3718 758.686 23.8349 757.605 24.1437 744.019C24.1437 736.453 24.1437 729.197 24.1437 721.632C24.1437 712.368 22.4457 710.824 16.2712 707.736C12.4122 705.729 12.8753 701.869 16.2712 700.017C21.9826 697.238 26.3047 695.076 30.9355 692.915C35.5664 690.753 37.5731 692.451 37.8818 696.002C38.4992 700.017 41.2777 701.561 45.4455 698.627C51.0025 694.922 55.7877 691.988 61.3447 691.988C79.5593 691.988 71.8412 718.698 56.0964 708.2C47.1435 702.178 39.1167 708.508 38.8079 723.639C38.8079 730.278 38.8079 737.071 38.8079 743.864C39.1167 757.451 39.5798 758.068 50.8481 760.539C56.4051 761.774 55.1702 768.722 49.7676 768.722C37.7274 768.722 25.8416 768.722 16.7343 768.722C12.2578 768.722 10.5599 762.546 15.4994 760.848H15.8081Z" fill="#FAFAFA"/>
<path d="M77.2441 755.289C77.2441 745.717 83.7273 740.931 96.6936 735.836C105.183 732.593 109.197 730.895 114.6 728.888C118.459 727.499 119.539 725.183 119.539 721.477V714.993C119.539 707.427 116.297 701.406 105.801 701.56C99.7809 701.56 94.687 703.722 94.5326 708.971C94.5326 710.515 94.5326 711.905 94.8413 714.066C95.15 727.498 78.3247 727.653 78.3247 717.154C78.3247 706.655 96.5393 692.297 112.13 692.297C123.552 692.297 134.666 699.553 134.512 715.147C134.512 728.888 134.512 739.387 134.512 752.665C134.512 758.377 138.68 760.23 143.311 756.988C146.089 755.289 150.103 757.451 147.787 762.082C145.78 766.251 140.687 771.037 133.277 771.037C127.72 771.037 124.016 768.413 121.237 764.244C119.693 762.082 117.841 761.774 115.217 763.781C109.66 768.104 104.875 771.037 95.9218 771.037C84.4991 771.037 77.5529 765.479 77.5529 755.289H77.2441ZM103.486 760.23C113.673 760.23 119.539 751.584 119.539 744.945V740.776C119.539 735.99 117.532 735.064 113.21 736.453C96.5393 741.703 94.2239 747.415 94.2239 751.738C94.2239 757.142 97.4654 760.23 103.331 760.23H103.486Z" fill="#FAFAFA"/>
<path d="M154.115 733.058C154.115 708.509 169.86 691.989 191.934 691.989C197.336 691.989 201.967 693.07 206.598 694.768C210.303 696.158 212.001 694.768 212.001 691.217V679.947C212.001 673.925 210.457 672.536 204.283 669.757C200.115 667.75 200.578 663.581 204.283 661.883C209.222 659.876 214.316 657.405 218.792 654.935C223.578 652.31 226.974 654.009 226.974 659.567C226.974 691.372 226.974 715.766 226.974 748.188C226.974 753.901 228.826 755.599 235.463 755.754C240.866 756.062 240.557 762.084 236.544 763.628C230.524 765.789 224.658 768.105 220.182 769.958C216.014 771.656 213.39 770.73 212.927 766.715C212.464 762.701 209.222 761.621 205.981 763.936C200.887 767.796 194.867 770.884 186.377 770.884C170.941 770.884 154.27 757.915 154.27 733.058H154.115ZM193.169 760.694C203.511 760.694 211.846 752.82 211.846 741.549V717.31C211.846 709.436 204.283 699.709 191.471 699.709C180.82 699.709 170.632 706.502 170.632 728.272C170.632 748.652 179.894 760.849 193.169 760.849V760.694Z" fill="#FAFAFA"/>
<path d="M245.034 760.847C252.597 758.84 253.369 757.759 253.523 743.864C253.523 736.762 253.523 729.197 253.523 721.631C253.523 712.368 251.825 710.978 245.651 707.736C241.792 705.729 242.101 701.869 245.651 700.171C250.591 697.855 254.604 695.848 260.47 693.069C265.872 690.598 268.342 692.914 268.342 697.701C268.342 714.993 268.342 729.197 268.342 744.018C268.651 757.759 268.805 758.84 276.678 761.002C281.617 762.546 280.382 768.876 275.134 769.03C265.718 769.03 255.993 769.03 246.268 769.03C241.329 769.03 240.094 762.7 244.879 761.156L245.034 760.847ZM259.698 661.109C265.872 661.109 270.812 665.741 270.812 671.299C270.812 677.321 265.872 682.416 259.698 682.416C253.523 682.416 248.738 677.784 248.738 671.917C248.738 666.05 253.678 661.109 259.698 661.109Z" fill="#FAFAFA"/>
<path d="M286.094 731.669C286.094 708.819 302.61 692.145 324.684 692.145C346.758 692.145 362.811 708.819 362.811 731.515C362.811 754.21 346.449 770.885 324.221 770.885C301.993 770.885 285.939 754.365 285.939 731.669H286.094ZM326.073 763.32C336.57 763.32 346.449 752.667 345.523 731.669C344.751 710.363 333.637 699.401 322.832 699.401C312.026 699.401 302.61 709.9 303.382 730.588C304.154 752.049 315.268 763.165 326.073 763.165V763.32Z" fill="#FAFAFA"/>
<path d="M15.8081 915.551C23.3718 913.389 23.8349 912.308 24.1437 898.722C24.1437 891.157 24.1437 883.9 24.1437 876.335C24.1437 867.071 22.4457 865.527 16.2712 862.439C12.4122 860.432 12.8753 856.572 16.2712 854.72C21.9826 851.941 26.3047 849.779 30.9355 847.618C35.5664 845.456 37.5731 847.155 37.8818 850.706C38.4992 854.72 41.2777 856.264 45.4455 853.33C51.0025 849.625 55.7877 846.691 61.3447 846.691C79.5593 846.691 71.8412 873.401 56.0964 862.903C47.1435 856.881 39.1167 863.211 38.8079 878.342C38.8079 884.981 38.8079 891.774 38.8079 898.567C39.1167 912.154 39.5798 912.772 50.8481 915.242C56.4051 916.477 55.1702 923.425 49.7676 923.425C37.7274 923.425 25.8416 923.425 16.7343 923.425C12.2578 923.425 10.5599 917.249 15.4994 915.551H15.8081Z" fill="#FAFAFA"/>
<path d="M77.2441 909.992C77.2441 900.42 83.7273 895.634 96.6936 890.539C105.183 887.297 109.197 885.598 114.6 883.591C118.459 882.202 119.539 879.886 119.539 876.18V869.696C119.539 862.131 116.297 856.109 105.801 856.264C99.7809 856.264 94.687 858.425 94.5326 863.674C94.5326 865.218 94.5326 866.608 94.8413 868.769C95.15 882.047 78.3247 882.356 78.3247 871.857C78.3247 861.359 96.5393 847 112.13 847C123.552 847 134.666 854.102 134.512 869.696C134.512 883.437 134.512 894.09 134.512 907.213C134.512 912.926 138.68 914.779 143.311 911.536C146.089 909.838 150.103 911.999 147.787 916.631C145.78 920.8 140.687 925.586 133.277 925.586C127.72 925.586 124.016 922.961 121.237 918.793C119.693 916.631 117.841 916.322 115.217 918.33C109.66 922.653 104.875 925.586 95.9218 925.586C84.4991 925.586 77.5529 920.028 77.5529 909.838L77.2441 909.992ZM103.486 915.087C113.673 915.087 119.539 906.441 119.539 899.802V895.634C119.539 890.848 117.532 889.921 113.21 891.311C96.5393 896.56 94.2239 902.273 94.2239 906.596C94.2239 911.999 97.4654 915.087 103.331 915.087H103.486Z" fill="#FAFAFA"/>
<path d="M154.115 887.913C154.115 863.365 169.86 846.845 191.934 846.845C197.336 846.845 201.967 847.771 206.598 849.624C210.303 851.013 212.001 849.624 212.001 846.073V834.802C212.001 828.781 210.457 827.391 204.283 824.612C200.115 822.605 200.578 818.437 204.283 816.738C209.222 814.731 214.316 812.261 218.792 809.79C223.578 807.166 226.974 808.864 226.974 814.422C226.974 846.227 226.974 870.621 226.974 903.044C226.974 908.756 228.826 910.455 235.463 910.609C240.866 910.918 240.557 916.939 236.544 918.483C230.524 920.645 224.658 922.96 220.182 924.813C216.014 926.512 213.39 925.585 212.927 921.571C212.464 917.557 209.222 916.476 205.981 918.792C200.887 922.652 194.867 925.74 186.377 925.74C170.941 925.74 154.27 912.771 154.27 887.913H154.115ZM193.169 915.55C203.511 915.55 211.846 907.676 211.846 896.405V872.165C211.846 864.291 204.283 854.41 191.471 854.41C180.82 854.41 170.632 861.203 170.632 882.973C170.632 903.353 179.894 915.55 193.169 915.55Z" fill="#FAFAFA"/>
<path d="M245.034 915.55C252.597 913.543 253.369 912.463 253.523 898.567C253.523 891.465 253.523 883.9 253.523 876.335C253.523 867.071 251.825 865.681 245.651 862.439C241.792 860.432 242.101 856.572 245.651 854.874C250.591 852.558 254.604 850.551 260.47 847.772C265.872 845.302 268.342 847.617 268.342 852.404C268.342 869.696 268.342 883.9 268.342 898.722C268.651 912.463 268.805 913.543 276.678 915.705C281.617 917.249 280.382 923.579 275.134 923.733C265.718 923.733 255.993 923.733 246.268 923.733C241.329 923.733 240.094 917.403 244.879 915.859L245.034 915.55ZM259.698 815.812C265.872 815.812 270.812 820.444 270.812 826.002C270.812 832.024 265.872 837.119 259.698 837.119C253.523 837.119 248.738 832.487 248.738 826.62C248.738 820.753 253.678 815.812 259.698 815.812Z" fill="#FAFAFA"/>
<path d="M286.094 886.368C286.094 863.518 302.61 846.844 324.684 846.844C346.758 846.844 362.811 863.518 362.811 886.214C362.811 908.91 346.449 925.584 324.221 925.584C301.993 925.584 285.939 909.064 285.939 886.368H286.094ZM326.073 918.173C336.57 918.173 346.449 907.52 345.523 886.677C344.751 865.371 333.637 854.409 322.832 854.409C312.026 854.409 302.61 864.753 303.382 885.596C304.154 907.057 315.268 918.173 326.073 918.173Z" fill="#FAFAFA"/>
</svg>
